<svg xmlns="http://www.w3.org/2000/svg" width="64" height="64" viewBox="0 0 64 64" fill="none">
  <!-- Computermonitor Rahmen -->
  <rect x="6" y="8" width="52" height="40" rx="4" stroke="#e52f29" stroke-width="2.5" stroke-linecap="round" stroke-linejoin="round"/>
  
  <!-- Bildschirm-Bereich -->
  <rect x="8" y="12" width="48" height="34" stroke="#e52f29" stroke-width="2" stroke-linecap="round" stroke-linejoin="round"/>
  
  <!-- Browserleiste oben -->
  <rect x="8" y="12" width="48" height="6" stroke="#e52f29" stroke-width="2" stroke-linecap="round" stroke-linejoin="round"/>
  
  <!-- Browser-Punkte -->
  <circle cx="12" cy="15" r="1" fill="#e52f29"/>
  <circle cx="16" cy="15" r="1" fill="#e52f29"/>
  <circle cx="20" cy="15" r="1" fill="#e52f29"/>
  
  <!-- Browser-Adressleiste -->
  <rect x="36" cy="15" width="16" height="2" rx="1" fill="#e52f29"/>
  
  <!-- Monitorständer -->
  <path d="M26 48H38V52H26V48Z" stroke="#e52f29" stroke-width="2" stroke-linecap="round" stroke-linejoin="round"/>
  <path d="M30 48V56" stroke="#e52f29" stroke-width="2" stroke-linecap="round" stroke-linejoin="round"/>
  <path d="M34 48V56" stroke="#e52f29" stroke-width="2" stroke-linecap="round" stroke-linejoin="round"/>
  <rect x="24" y="56" width="16" height="4" rx="1" stroke="#e52f29" stroke-width="2" stroke-linecap="round" stroke-linejoin="round"/>
  
  <!-- 3D-Würfel links -->
  <path d="M18 30L24 26L30 30L24 34L18 30Z" stroke="#e52f29" stroke-width="2.5" stroke-linecap="round" stroke-linejoin="round"/>
  <path d="M24 34V40" stroke="#e52f29" stroke-width="2.5" stroke-linecap="round" stroke-linejoin="round"/>
  <path d="M30 30V36" stroke="#e52f29" stroke-width="2.5" stroke-linecap="round" stroke-linejoin="round"/>
  <path d="M24 40L30 36" stroke="#e52f29" stroke-width="2.5" stroke-linecap="round" stroke-linejoin="round"/>
  
  <!-- Zahnrad rechts -->
  <circle cx="42" cy="30" r="6" stroke="#e52f29" stroke-width="2.5" stroke-linecap="round" stroke-linejoin="round"/>
  <circle cx="42" cy="30" r="3" stroke="#e52f29" stroke-width="1.5" stroke-linecap="round" stroke-linejoin="round"/>
  
  <!-- Zahnrad-Zähne -->
  <path d="M42 21V24" stroke="#e52f29" stroke-width="2.5" stroke-linecap="round" stroke-linejoin="round"/>
  <path d="M42 36V39" stroke="#e52f29" stroke-width="2.5" stroke-linecap="round" stroke-linejoin="round"/>
  <path d="M33 30H36" stroke="#e52f29" stroke-width="2.5" stroke-linecap="round" stroke-linejoin="round"/>
  <path d="M48 30H51" stroke="#e52f29" stroke-width="2.5" stroke-linecap="round" stroke-linejoin="round"/>
  
  <path d="M35.5 23.5L37.5 25.5" stroke="#e52f29" stroke-width="2.5" stroke-linecap="round" stroke-linejoin="round"/>
  <path d="M46.5 34.5L48.5 36.5" stroke="#e52f29" stroke-width="2.5" stroke-linecap="round" stroke-linejoin="round"/>
  <path d="M35.5 36.5L37.5 34.5" stroke="#e52f29" stroke-width="2.5" stroke-linecap="round" stroke-linejoin="round"/>
  <path d="M46.5 25.5L48.5 23.5" stroke="#e52f29" stroke-width="2.5" stroke-linecap="round" stroke-linejoin="round"/>
  
  <!-- Button/Leiste unten -->
  <rect x="34" y="42" width="16" height="4" rx="1" stroke="#e52f29" stroke-width="2" stroke-linecap="round" stroke-linejoin="round"/>
</svg> 